<svg width="800" height="520" viewBox="0 0 800 520" fill="none" xmlns="http://www.w3.org/2000/svg">
<rect width="800" height="520" rx="24" fill="#0F1731"/>
<circle cx="132" cy="112" r="72" fill="#7C5CFF" fill-opacity="0.32"/>
<circle cx="700" cy="430" r="90" fill="#00D4FF" fill-opacity="0.25"/>
<rect x="120" y="180" width="540" height="220" rx="24" fill="#1A2448"/>
<rect x="170" y="220" width="160" height="150" rx="18" fill="#2A396F"/>
<rect x="350" y="220" width="120" height="150" rx="18" fill="#2A396F"/>
<rect x="490" y="220" width="120" height="150" rx="18" fill="#2A396F"/>
<path d="M255 242C232 242 218 258 218 280V337C218 352 229 364 244 364H270C285 364 296 352 296 337V280C296 258 278 242 255 242Z" fill="#E6AE5C"/>
<rect x="247" y="192" width="16" height="52" rx="8" fill="#D19A45"/>
<circle cx="410" cy="276" r="40" fill="#8FD3FF"/>
<rect x="395" y="318" width="30" height="48" rx="10" fill="#8FD3FF"/>
<rect x="523" y="250" width="54" height="102" rx="10" fill="#FF6B81"/>
<rect x="530" y="230" width="40" height="20" rx="8" fill="#FF8EA1"/>
</svg>