<svg width="600" height="340" viewBox="0 0 600 340" fill="none" xmlns="http://www.w3.org/2000/svg">
<rect width="600" height="340" rx="18" fill="#10162D"/>
<rect x="92" y="102" width="416" height="144" rx="16" fill="#1D274C"/>
<rect x="120" y="206" width="360" height="24" rx="8" fill="#0C132B"/>
<g fill="#DCE6FF">
<rect x="128" y="206" width="24" height="24"/><rect x="156" y="206" width="24" height="24"/><rect x="184" y="206" width="24" height="24"/>
<rect x="212" y="206" width="24" height="24"/><rect x="240" y="206" width="24" height="24"/><rect x="268" y="206" width="24" height="24"/>
<rect x="296" y="206" width="24" height="24"/><rect x="324" y="206" width="24" height="24"/><rect x="352" y="206" width="24" height="24"/>
</g>
<circle cx="150" cy="146" r="16" fill="#7C5CFF"/><circle cx="198" cy="146" r="16" fill="#7C5CFF"/><circle cx="246" cy="146" r="16" fill="#7C5CFF"/>
<rect x="306" y="130" width="164" height="32" rx="8" fill="#00D4FF" fill-opacity="0.45"/>
</svg>